<?xml version="1.0" encoding="utf-8"?>
<!-- Generator: Adobe Illustrator 19.0.0, SVG Export Plug-In . SVG Version: 6.00 Build 0)  -->
<svg version="1.1" id="Layer_1" xmlns="http://www.w3.org/2000/svg" xmlns:xlink="http://www.w3.org/1999/xlink" x="0px" y="0px"
	 viewBox="0 0 209.3 170.4" style="enable-background:new 0 0 209.3 170.4;" xml:space="preserve">
<style type="text/css">
	.st0{fill:#FFD7D7;stroke:#000000;stroke-width:7;stroke-miterlimit:10;}
	.st1{fill:#FF0000;}
	.st2{fill:#FAFDFF;stroke:#000000;stroke-width:7;stroke-miterlimit:10;}
	.st3{fill:none;stroke:#000000;stroke-width:7;stroke-linecap:square;stroke-linejoin:round;stroke-miterlimit:10;}
	.st4{fill:#FFD7D7;}
	.st5{fill:none;stroke:#000000;stroke-width:13;stroke-linecap:round;stroke-miterlimit:10;}
	.st6{fill:none;stroke:#000000;stroke-width:7;stroke-linecap:round;stroke-miterlimit:10;}
	.st7{fill:#FFFFFF;stroke:#000000;stroke-width:7;stroke-miterlimit:10;}
	.st8{fill:#FFFFFF;stroke:#000000;stroke-width:7;stroke-linecap:round;stroke-linejoin:round;stroke-miterlimit:10;}
</style>
<path id="XMLID_4_" class="st0" d="M46.7,17.6c0,0,5-14.1,58.1-14.1s57.8,14.1,57.8,14.1l-14.4,54.7H61L46.7,17.6z"/>
<polygon id="XMLID_10_" class="st1" points="121.2,26.6 111.2,26.6 111.2,16.6 99.2,16.6 99.2,26.6 88.2,26.6 88.2,38.6 99.2,38.6 
	99.2,49.6 111.2,49.6 111.2,38.6 121.2,38.6 "/>
<path id="XMLID_1_" class="st2" d="M198.8,166.9H10.6c-3.9,0-7.1-3.2-7.1-7.1V66.2c0-3.9,3.2-7.1,7.1-7.1h188.2
	c3.9,0,7.1,3.2,7.1,7.1v93.6C205.8,163.7,202.7,166.9,198.8,166.9z"/>
<path id="XMLID_2_" class="st3" d="M200.1,62.1l-94.7,50.5c-0.5,0.3-1,0.3-1.5,0L9.2,62.1c-1.5-0.8-0.9-3,0.8-3h189.5
	C201.1,59.1,201.6,61.3,200.1,62.1z"/>
<g id="XMLID_14_">
	<circle id="XMLID_13_" class="st4" cx="33.6" cy="135" r="13"/>
	<circle id="XMLID_12_" class="st4" cx="175.6" cy="135" r="13"/>
</g>
<path id="XMLID_8_" class="st5" d="M134.2,141.1c0,0-8.7-17-30-17s-29,17-29,17"/>
<path id="XMLID_11_" class="st6" d="M113.2,142c0,0-2.2,9.2-8.3,9.2s-8.6-9.2-8.6-9.2"/>
<g id="XMLID_5_">
	<circle id="XMLID_3_" class="st7" cx="39.6" cy="113" r="14.1"/>
	<circle id="XMLID_9_" cx="39.6" cy="113" r="5.1"/>
	<path id="XMLID_7_" class="st8" d="M157.2,118.1c0,0,12.9-18.4,26.4-5.3"/>
</g>
</svg>
